<svg width="275" height="275" viewBox="0 0 275 275" fill="none" xmlns="http://www.w3.org/2000/svg">
<path d="M230.542 124.437C230.643 126.644 230.572 128.427 229.167 130.21C227.23 132.248 224.461 133.125 221.705 133.246C219.759 133.181 218.084 132.511 216.641 131.212C215.752 130.176 215.778 129.174 215.804 127.854C215.938 126.605 216.566 126.024 217.451 125.197C221.025 122.551 226.51 123.212 230.542 124.437Z" fill="#FAFAFA"/>
<path d="M111.635 171.969C112.509 171.955 113.384 171.941 114.285 171.926C114.693 171.917 114.693 171.917 115.11 171.907C116.784 171.894 117.965 172.005 119.283 173.115C120.054 174.064 119.994 175.158 119.885 176.323C119.585 177.175 119.363 177.575 118.639 178.114C117.683 178.557 116.894 178.643 115.842 178.637C115.621 178.637 115.4 178.636 115.172 178.635C114.754 178.632 114.754 178.632 114.327 178.629C113.439 178.624 112.55 178.62 111.635 178.615C111.635 176.422 111.635 174.229 111.635 171.969Z" fill="#F4F8FD"/>
<path d="M61.7537 60.1532C64.794 61.879 67.5797 63.9694 70.3818 66.0526C71.375 66.7882 72.3685 67.5235 73.362 68.2587C74.0371 68.7583 74.7118 69.2586 75.386 69.7593C78.1216 71.7819 80.9167 73.7061 83.7326 75.6144C85.9811 77.1423 88.1709 78.7278 90.3332 80.3763C92.9626 82.3595 95.6477 84.2673 98.3207 86.1911C99.3187 86.9101 100.316 87.6305 101.312 88.3514C104.183 90.4278 107.055 92.5008 109.942 94.5536C112.667 96.4922 115.355 98.4792 118.044 100.467C120.263 102.106 122.495 103.727 124.744 105.324C126.145 106.319 127.54 107.321 128.931 108.33C129.267 108.574 129.603 108.818 129.95 109.069C130.6 109.541 131.25 110.014 131.9 110.487C134.06 112.054 136.258 113.552 138.488 115.018C140.456 113.938 142.208 112.801 143.969 111.399C146.088 109.735 148.252 108.152 150.46 106.609C153.433 104.528 156.363 102.395 159.279 100.236C161.56 98.5474 163.853 96.8767 166.157 95.2189C168.794 93.3199 171.418 91.4027 174.031 89.4708C177.598 86.8351 181.187 84.2316 184.786 81.6401C186.382 80.4909 187.975 79.3391 189.568 78.1875C190.207 77.7262 190.845 77.2649 191.484 76.8037C191.958 76.4612 191.958 76.4612 192.441 76.1118C193.399 75.4199 194.357 74.728 195.315 74.0361C195.631 73.8077 195.947 73.5794 196.273 73.3441C196.911 72.8831 197.549 72.4222 198.187 71.9613C199.789 70.804 201.391 69.6459 202.992 68.4859C206.239 66.1335 209.494 63.7922 212.767 61.4754C213.075 61.2567 213.384 61.0379 213.702 60.8125C216.381 58.9216 217.82 58.5672 221.068 58.8143C224.079 59.3535 226.296 60.7777 228.304 63.0721C229.815 65.4537 230.485 67.5995 230.487 70.4248C230.488 70.6979 230.488 70.9709 230.489 71.2522C230.491 72.1734 230.49 73.0945 230.489 74.0156C230.49 74.6802 230.491 75.3449 230.492 76.0095C230.495 77.8407 230.495 79.672 230.494 81.5032C230.494 83.4764 230.496 85.4495 230.498 87.4226C230.502 91.2904 230.503 95.1582 230.503 99.0259C230.503 102.169 230.504 105.313 230.506 108.456C230.509 117.363 230.511 126.271 230.511 135.178C230.511 135.899 230.511 135.899 230.511 136.634C230.511 137.115 230.511 137.596 230.511 138.092C230.511 145.889 230.515 153.686 230.521 161.482C230.527 169.483 230.53 177.484 230.53 185.485C230.529 189.979 230.531 194.473 230.535 198.967C230.539 202.793 230.54 206.619 230.537 210.446C230.536 212.398 230.536 214.351 230.539 216.304C230.543 218.091 230.542 219.879 230.538 221.667C230.538 222.313 230.539 222.96 230.541 223.607C230.544 224.486 230.542 225.365 230.538 226.245C230.538 226.977 230.538 226.977 230.538 227.725C230.265 231.339 228.904 234.238 226.282 236.686C223.974 238.589 221.584 239.633 218.556 239.461C215.408 239.061 212.609 237.21 209.92 235.648C209.059 235.154 208.198 234.661 207.336 234.168C206.878 233.905 206.419 233.643 205.946 233.372C204.361 232.475 202.768 231.592 201.171 230.715C200.756 230.487 200.755 230.487 200.332 230.254C199.232 229.65 198.133 229.047 197.032 228.446C196.263 228.027 195.496 227.605 194.728 227.184C194.286 226.943 193.845 226.701 193.39 226.453C192.972 226.212 192.553 225.97 192.122 225.722C191.682 225.481 191.242 225.24 190.789 224.992C189.046 223.602 188.081 221.907 187.711 219.686C187.652 218.675 187.647 217.676 187.661 216.663C187.659 216.279 187.658 215.896 187.656 215.5C187.654 214.222 187.663 212.944 187.672 211.666C187.673 210.747 187.672 209.828 187.672 208.909C187.671 206.418 187.681 203.928 187.693 201.438C187.704 198.834 187.705 196.229 187.707 193.625C187.712 188.695 187.726 183.766 187.743 178.837C187.762 173.224 187.771 167.611 187.78 161.998C187.798 150.454 187.828 138.91 187.866 127.366C186.707 128.182 185.548 129 184.389 129.817C184.063 130.047 183.737 130.277 183.401 130.514C181.081 132.15 178.782 133.813 176.506 135.509C173.723 137.57 170.924 139.604 168.102 141.611C163.663 144.769 159.258 147.972 154.876 151.21C152.171 153.208 149.459 155.197 146.736 157.171C146.283 157.5 146.283 157.5 145.82 157.836C145.237 158.257 144.652 158.675 144.065 159.09C143.432 159.54 142.807 160 142.187 160.467C139.728 162.251 139.728 162.251 138.049 162.376C136.245 161.631 134.749 160.595 133.168 159.459C132.447 158.953 131.726 158.448 131.004 157.942C130.44 157.544 130.44 157.544 129.864 157.137C127.903 155.761 125.918 154.419 123.936 153.072C116.082 147.719 108.256 142.325 100.483 136.854C100.121 136.6 99.7603 136.346 99.3882 136.085C98.7322 135.623 98.0767 135.161 97.4219 134.697C95.0562 133.033 92.6543 131.425 90.2464 129.823C89.8912 129.586 89.536 129.349 89.17 129.106C88.2991 128.525 87.4282 127.945 86.5571 127.366C86.5582 127.841 86.5594 128.316 86.5606 128.806C86.589 140.369 86.61 151.933 86.6232 163.496C86.6298 169.088 86.6388 174.68 86.6534 180.272C86.6661 185.146 86.6744 190.02 86.6772 194.894C86.6789 197.475 86.6828 200.056 86.6921 202.637C86.7008 205.066 86.7034 207.496 86.7015 209.925C86.7019 210.816 86.7044 211.707 86.7093 212.599C86.7157 213.817 86.7141 215.035 86.7106 216.253C86.7144 216.605 86.7181 216.956 86.7219 217.318C86.701 220.037 86.3111 222.571 84.301 224.563C83.0579 225.356 81.8075 226.097 80.5129 226.803C80.2626 226.94 80.0122 227.078 79.7543 227.219C78.9457 227.662 78.1356 228.103 77.3254 228.543C76.7656 228.849 76.2058 229.155 75.6462 229.461C74.8102 229.919 73.9741 230.377 73.1376 230.833C71.2394 231.87 69.3485 232.919 67.4627 233.978C66.2838 234.638 65.0991 235.288 63.9143 235.937C63.188 236.343 62.4721 236.767 61.757 237.192C58.2985 239.145 54.9437 239.671 51.0489 238.652C48.4201 237.523 46.4824 235.353 45.193 232.835C43.8322 229.406 43.7529 226.142 43.78 222.51C43.7786 221.848 43.7765 221.186 43.7738 220.524C43.7683 218.716 43.7734 216.908 43.7804 215.1C43.786 213.145 43.7818 211.191 43.7788 209.237C43.7745 205.413 43.7793 201.59 43.7872 197.766C43.796 193.312 43.7959 188.858 43.7955 184.404C43.7951 176.456 43.8029 168.509 43.8153 160.562C43.8273 152.852 43.8333 145.143 43.8327 137.433C43.8327 136.958 43.8327 136.483 43.8326 135.993C43.8326 135.519 43.8325 135.045 43.8325 134.556C43.8319 125.775 43.8369 116.993 43.8446 108.212C43.8471 105.107 43.848 102.003 43.8484 98.8991C43.849 95.1167 43.8528 91.3344 43.8606 87.552C43.8645 85.6225 43.8671 83.693 43.8661 81.7636C43.8651 79.9968 43.8681 78.2302 43.8743 76.4635C43.8758 75.8249 43.8759 75.1863 43.8745 74.5477C43.8645 69.6324 44.0361 65.6375 47.3958 61.7948C51.7567 58.2366 56.6166 57.7489 61.7537 60.1532Z" fill="#098BED"/>
<path d="M152.618 40.2048C157.345 43.7799 160.508 48.8392 161.555 54.6527C162.073 59.7967 161.891 64.4543 159.427 69.1006C159.242 69.4731 159.058 69.8456 158.867 70.2294C155.851 75.7893 150.741 79.688 144.747 81.5977C142.788 82.0591 140.843 82.0555 138.84 82.0347C138.189 82.0299 138.189 82.0299 137.526 82.025C134.474 81.958 131.916 81.6481 129.211 80.1491C128.847 79.959 128.484 79.7689 128.11 79.5731C122.488 76.4291 118.238 71.5478 116.443 65.2762C115.386 60.197 115.267 54.2049 117.72 49.5534C117.932 49.1317 118.143 48.7099 118.361 48.2753C121.638 42.2032 126.707 38.257 133.32 36.2326C140.275 34.8778 146.716 36.4298 152.618 40.2048Z" fill="#1661EC"/>
<path d="M158.919 166.155C159.21 166.154 159.502 166.152 159.802 166.151C160.417 166.15 161.032 166.153 161.647 166.158C162.587 166.165 163.528 166.158 164.468 166.15C165.066 166.151 165.664 166.152 166.262 166.155C166.806 166.156 167.35 166.158 167.91 166.159C169.261 166.324 169.261 166.324 169.981 166.826C170.77 167.895 170.715 168.622 170.716 169.939C170.722 170.669 170.722 170.669 170.727 171.413C170.725 171.947 170.722 172.482 170.719 173.032C170.721 173.6 170.723 174.167 170.726 174.735C170.732 176.278 170.73 177.82 170.726 179.362C170.722 180.975 170.725 182.589 170.727 184.202C170.73 186.911 170.727 189.62 170.72 192.329C170.713 195.462 170.716 198.596 170.723 201.729C170.729 204.418 170.73 207.107 170.726 209.795C170.724 211.402 170.724 213.009 170.728 214.615C170.732 216.125 170.729 217.636 170.722 219.146C170.719 219.966 170.723 220.785 170.727 221.605C170.723 222.092 170.72 222.578 170.716 223.079C170.716 223.503 170.715 223.926 170.715 224.363C170.552 225.419 170.552 225.419 169.984 226.193C168.782 227.027 167.594 226.86 166.153 226.864C165.851 226.865 165.549 226.866 165.238 226.867C164.601 226.868 163.964 226.866 163.327 226.861C162.351 226.854 161.374 226.861 160.398 226.869C159.779 226.868 159.16 226.866 158.541 226.864C157.695 226.862 157.695 226.862 156.831 226.859C156.389 226.805 155.946 226.75 155.49 226.694C154.518 225.255 154.521 224.766 154.517 223.079C154.514 222.593 154.511 222.106 154.508 221.605C154.509 221.071 154.51 220.537 154.511 219.987C154.509 219.419 154.507 218.851 154.504 218.283C154.499 216.741 154.498 215.199 154.499 213.656C154.5 212.369 154.498 211.082 154.496 209.795C154.491 206.76 154.491 203.725 154.493 200.69C154.496 197.556 154.491 194.423 154.481 191.289C154.474 188.601 154.471 185.912 154.473 183.223C154.473 181.616 154.472 180.01 154.466 178.403C154.461 176.893 154.462 175.383 154.467 173.873C154.469 173.053 154.464 172.233 154.459 171.413C154.462 170.927 154.465 170.441 154.468 169.939C154.468 169.516 154.468 169.092 154.468 168.656C154.629 167.6 154.629 167.6 155.2 166.826C156.376 166.006 157.504 166.159 158.919 166.155Z" fill="#0A97FA"/>
<path d="M133.777 184.723C134.054 184.723 134.332 184.723 134.617 184.723C135.203 184.724 135.788 184.728 136.374 184.735C137.269 184.745 138.164 184.744 139.06 184.741C143.45 184.759 143.45 184.759 144.898 185.732C145.024 187.017 145.067 188.214 145.056 189.499C145.058 189.89 145.059 190.28 145.061 190.682C145.064 191.976 145.058 193.27 145.052 194.564C145.052 195.46 145.052 196.357 145.053 197.253C145.053 199.134 145.048 201.015 145.041 202.895C145.031 205.31 145.031 207.725 145.034 210.139C145.035 211.991 145.032 213.843 145.028 215.694C145.027 216.585 145.026 217.476 145.027 218.366C145.027 219.609 145.022 220.852 145.015 222.095C145.016 222.466 145.017 222.837 145.018 223.219C144.995 225.765 144.995 225.765 144.051 226.716C142.119 226.887 140.18 226.857 138.241 226.851C137.276 226.85 136.311 226.86 135.346 226.87C134.735 226.871 134.123 226.872 133.512 226.871C132.675 226.873 132.675 226.873 131.821 226.875C131.383 226.823 130.945 226.77 130.493 226.716C129.39 225.048 129.524 223.64 129.53 221.705C129.528 221.324 129.525 220.942 129.523 220.55C129.517 219.288 129.518 218.026 129.519 216.764C129.517 215.888 129.515 215.012 129.513 214.137C129.51 212.301 129.51 210.465 129.512 208.628C129.515 206.273 129.508 203.917 129.498 201.561C129.492 199.752 129.491 197.944 129.492 196.135C129.492 195.267 129.49 194.398 129.486 193.529C129.481 192.316 129.483 191.103 129.488 189.89C129.483 189.349 129.483 189.349 129.479 188.797C129.501 186.348 129.501 186.348 130.211 185.426C131.336 184.553 132.381 184.72 133.777 184.723Z" fill="#0885F6"/>
<path d="M108.28 199.167C108.579 199.167 108.879 199.166 109.188 199.165C109.821 199.164 110.455 199.166 111.088 199.17C112.059 199.174 113.03 199.17 114.001 199.164C114.616 199.165 115.231 199.166 115.846 199.167C116.408 199.168 116.97 199.169 117.548 199.17C118.884 199.282 118.884 199.282 119.736 200.14C119.845 201.216 119.845 201.216 119.847 202.589C119.849 203.101 119.852 203.614 119.855 204.143C119.853 204.699 119.851 205.255 119.85 205.829C119.85 206.403 119.851 206.977 119.852 207.551C119.853 208.755 119.851 209.959 119.848 211.163C119.843 212.708 119.845 214.253 119.851 215.797C119.854 216.983 119.853 218.169 119.85 219.355C119.85 220.202 119.852 221.049 119.855 221.896C119.852 222.409 119.849 222.922 119.847 223.451C119.846 223.904 119.845 224.357 119.845 224.824C119.736 225.899 119.736 225.899 118.884 226.758C117.548 226.869 117.548 226.869 115.846 226.872C115.547 226.873 115.247 226.873 114.939 226.874C114.305 226.875 113.672 226.873 113.038 226.87C112.067 226.865 111.096 226.87 110.125 226.875C109.51 226.874 108.895 226.873 108.28 226.872C107.718 226.871 107.157 226.87 106.578 226.869C105.243 226.758 105.243 226.758 104.39 225.899C104.282 224.824 104.282 224.824 104.28 223.451C104.277 222.938 104.274 222.425 104.271 221.896C104.273 221.34 104.275 220.784 104.277 220.211C104.276 219.636 104.275 219.062 104.274 218.488C104.273 217.284 104.275 216.08 104.279 214.876C104.284 213.331 104.281 211.787 104.276 210.242C104.273 209.056 104.274 207.87 104.276 206.684C104.277 205.837 104.274 204.99 104.271 204.143C104.274 203.63 104.277 203.117 104.28 202.589C104.28 202.135 104.281 201.682 104.282 201.216C104.527 198.777 106.269 199.171 108.28 199.167Z" fill="#0B75F5"/>
<path d="M61.7273 60.3964C64.8021 62.1384 67.6194 64.2485 70.4533 66.3512C71.4578 67.0936 72.4626 67.8358 73.4674 68.5779C74.1501 69.0823 74.8324 69.5872 75.5143 70.0927C78.2809 72.1342 81.1077 74.0764 83.9556 76.0027C86.2296 77.5449 88.4443 79.1453 90.6311 80.8092C93.2903 82.8111 96.0059 84.7368 98.7092 86.6786C99.7186 87.4044 100.727 88.1315 101.735 88.8592C104.638 90.9551 107.543 93.0475 110.463 95.1196C113.218 97.0763 115.937 99.082 118.656 101.088C120.901 102.743 123.158 104.379 125.433 105.991C126.849 106.996 128.26 108.007 129.667 109.025C130.007 109.272 130.347 109.518 130.697 109.771C131.355 110.248 132.012 110.725 132.669 111.203C134.854 112.785 137.077 114.297 139.333 115.776C138.538 117.576 137.374 118.363 135.754 119.402C133.862 120.628 132.304 121.884 130.723 123.512C130.078 124.044 129.424 124.564 128.759 125.07C128.438 125.315 128.118 125.56 127.788 125.812C127.478 126.046 127.168 126.28 126.848 126.52C126.566 126.738 126.284 126.955 125.994 127.178C125.06 127.858 124.096 128.448 123.108 129.045C119.88 131.079 116.898 133.432 113.888 135.772C113.201 136.305 112.51 136.833 111.818 137.359C110.101 138.666 108.525 139.991 107.045 141.563C105.29 140.998 103.974 140.102 102.513 139.016C98.9814 136.393 95.3744 133.906 91.704 131.48C91.231 131.166 90.758 130.852 90.2706 130.529C89.1183 129.765 87.9655 129.002 86.8121 128.24C86.8133 128.719 86.8145 129.199 86.8157 129.693C86.8444 141.365 86.8656 153.037 86.879 164.709C86.8857 170.354 86.8948 175.998 86.9096 181.643C86.9224 186.562 86.9308 191.482 86.9336 196.402C86.9353 199.007 86.9393 201.612 86.9487 204.217C86.9574 206.669 86.9601 209.121 86.9582 211.574C86.9586 212.473 86.9611 213.373 86.9661 214.272C86.9725 215.502 86.9709 216.731 86.9674 217.961C86.9712 218.316 86.975 218.67 86.9788 219.036C86.9576 221.78 86.5634 224.338 84.5305 226.349C83.2733 227.149 82.0086 227.897 80.6994 228.61C80.4462 228.749 80.193 228.887 79.9321 229.03C79.1144 229.477 78.2951 229.922 77.4757 230.366C76.9095 230.675 76.3434 230.984 75.7774 231.293C74.9319 231.755 74.0864 232.217 73.2404 232.678C71.3206 233.724 69.4083 234.783 67.5011 235.852C66.3087 236.519 65.1106 237.174 63.9124 237.83C63.1778 238.239 62.4538 238.667 61.7307 239.096C58.2329 241.068 54.84 241.599 50.901 240.57C48.2423 239.43 46.2827 237.24 44.9786 234.699C43.6025 231.237 43.5222 227.943 43.5496 224.277C43.5482 223.609 43.5461 222.94 43.5433 222.272C43.5378 220.447 43.543 218.622 43.55 216.797C43.5557 214.824 43.5514 212.852 43.5484 210.879C43.5441 207.02 43.5489 203.16 43.5569 199.301C43.5658 194.805 43.5657 190.309 43.5653 185.813C43.5649 177.791 43.5728 169.769 43.5853 161.747C43.5974 153.965 43.6035 146.183 43.6029 138.401C43.6029 137.922 43.6029 137.442 43.6028 136.948C43.6028 136.469 43.6028 135.991 43.6027 135.498C43.6021 126.634 43.6072 117.77 43.6149 108.906C43.6175 105.772 43.6184 102.639 43.6188 99.5058C43.6194 95.688 43.6233 91.8701 43.6312 88.0523C43.6351 86.1047 43.6378 84.1571 43.6367 82.2095C43.6357 80.4262 43.6388 78.643 43.645 76.8597C43.6465 76.2152 43.6467 75.5706 43.6452 74.926C43.6351 69.9645 43.8087 65.9321 47.2065 62.0534C51.6169 58.4618 56.5319 57.9695 61.7273 60.3964Z" fill="#5922DD"/>
</svg>
